<mxfile host="app.diagrams.net" modified="2023-10-27T07:35:08.258Z" agent="Mozilla/5.0 (Windows NT 10.0; Win64; x64) AppleWebKit/537.36 (KHTML, like Gecko) Chrome/118.0.0.0 Safari/537.36" etag="jD33K4fhyJ2Nh0ABUfZV" version="22.0.8" type="device">
  <diagram name="Page-1" id="c4acf3e9-155e-7222-9cf6-157b1a14988f">
    <mxGraphModel dx="1259" dy="673" grid="1" gridSize="10" guides="1" tooltips="1" connect="1" arrows="1" fold="1" page="1" pageScale="1" pageWidth="850" pageHeight="1100" background="none" math="0" shadow="0">
      <root>
        <mxCell id="0" />
        <mxCell id="1" parent="0" />
        <mxCell id="JucH0bdHnx9_qoao5w32-1" value="User" style="swimlane;fontStyle=0;childLayout=stackLayout;horizontal=1;startSize=26;fillColor=none;horizontalStack=0;resizeParent=1;resizeParentMax=0;resizeLast=0;collapsible=1;marginBottom=0;whiteSpace=wrap;html=1;swimlaneLine=1;" parent="1" vertex="1">
          <mxGeometry x="350" y="324.79" width="140" height="104" as="geometry" />
        </mxCell>
        <mxCell id="JucH0bdHnx9_qoao5w32-2" value="- login: string" style="text;strokeColor=none;fillColor=none;align=left;verticalAlign=top;spacingLeft=4;spacingRight=4;overflow=hidden;rotatable=0;points=[[0,0.5],[1,0.5]];portConstraint=eastwest;whiteSpace=wrap;html=1;" parent="JucH0bdHnx9_qoao5w32-1" vertex="1">
          <mxGeometry y="26" width="140" height="26" as="geometry" />
        </mxCell>
        <mxCell id="JucH0bdHnx9_qoao5w32-3" value="- password: string" style="text;strokeColor=none;fillColor=none;align=left;verticalAlign=top;spacingLeft=4;spacingRight=4;overflow=hidden;rotatable=0;points=[[0,0.5],[1,0.5]];portConstraint=eastwest;whiteSpace=wrap;html=1;" parent="JucH0bdHnx9_qoao5w32-1" vertex="1">
          <mxGeometry y="52" width="140" height="26" as="geometry" />
        </mxCell>
        <mxCell id="JucH0bdHnx9_qoao5w32-4" value="- name: string" style="text;strokeColor=none;fillColor=none;align=left;verticalAlign=top;spacingLeft=4;spacingRight=4;overflow=hidden;rotatable=0;points=[[0,0.5],[1,0.5]];portConstraint=eastwest;whiteSpace=wrap;html=1;" parent="JucH0bdHnx9_qoao5w32-1" vertex="1">
          <mxGeometry y="78" width="140" height="26" as="geometry" />
        </mxCell>
        <mxCell id="JucH0bdHnx9_qoao5w32-13" value="Consumer" style="swimlane;fontStyle=0;childLayout=stackLayout;horizontal=1;startSize=26;fillColor=none;horizontalStack=0;resizeParent=1;resizeParentMax=0;resizeLast=0;collapsible=1;marginBottom=0;whiteSpace=wrap;html=1;" parent="1" vertex="1">
          <mxGeometry x="470" y="50" width="220" height="104" as="geometry" />
        </mxCell>
        <mxCell id="JucH0bdHnx9_qoao5w32-14" value="- order: Order" style="text;strokeColor=default;fillColor=none;align=left;verticalAlign=top;spacingLeft=4;spacingRight=4;overflow=hidden;rotatable=0;points=[[0,0.5],[1,0.5]];portConstraint=eastwest;whiteSpace=wrap;html=1;" parent="JucH0bdHnx9_qoao5w32-13" vertex="1">
          <mxGeometry y="26" width="220" height="26" as="geometry" />
        </mxCell>
        <mxCell id="_UadZDXfJrqQWSUkQn-_-1" value="+ makeOrder(order: Order)" style="text;strokeColor=none;fillColor=none;align=left;verticalAlign=top;spacingLeft=4;spacingRight=4;overflow=hidden;rotatable=0;points=[[0,0.5],[1,0.5]];portConstraint=eastwest;whiteSpace=wrap;html=1;" parent="JucH0bdHnx9_qoao5w32-13" vertex="1">
          <mxGeometry y="52" width="220" height="26" as="geometry" />
        </mxCell>
        <mxCell id="_UadZDXfJrqQWSUkQn-_-19" value="+ viewProductDetails(product: Product)" style="text;strokeColor=none;fillColor=none;align=left;verticalAlign=top;spacingLeft=4;spacingRight=4;overflow=hidden;rotatable=0;points=[[0,0.5],[1,0.5]];portConstraint=eastwest;whiteSpace=wrap;html=1;" parent="JucH0bdHnx9_qoao5w32-13" vertex="1">
          <mxGeometry y="78" width="220" height="26" as="geometry" />
        </mxCell>
        <mxCell id="JucH0bdHnx9_qoao5w32-20" value="Order" style="swimlane;fontStyle=0;childLayout=stackLayout;horizontal=1;startSize=26;fillColor=none;horizontalStack=0;resizeParent=1;resizeParentMax=0;resizeLast=0;collapsible=1;marginBottom=0;whiteSpace=wrap;html=1;" parent="1" vertex="1">
          <mxGeometry x="680" y="324.79" width="140" height="156" as="geometry" />
        </mxCell>
        <mxCell id="JucH0bdHnx9_qoao5w32-48" value="- active: boolean" style="text;strokeColor=none;fillColor=none;align=left;verticalAlign=top;spacingLeft=4;spacingRight=4;overflow=hidden;rotatable=0;points=[[0,0.5],[1,0.5]];portConstraint=eastwest;whiteSpace=wrap;html=1;" parent="JucH0bdHnx9_qoao5w32-20" vertex="1">
          <mxGeometry y="26" width="140" height="26" as="geometry" />
        </mxCell>
        <mxCell id="JucH0bdHnx9_qoao5w32-21" value="- count: int" style="text;strokeColor=none;fillColor=none;align=left;verticalAlign=top;spacingLeft=4;spacingRight=4;overflow=hidden;rotatable=0;points=[[0,0.5],[1,0.5]];portConstraint=eastwest;whiteSpace=wrap;html=1;" parent="JucH0bdHnx9_qoao5w32-20" vertex="1">
          <mxGeometry y="52" width="140" height="26" as="geometry" />
        </mxCell>
        <mxCell id="JucH0bdHnx9_qoao5w32-22" value="- price: float" style="text;strokeColor=none;fillColor=none;align=left;verticalAlign=top;spacingLeft=4;spacingRight=4;overflow=hidden;rotatable=0;points=[[0,0.5],[1,0.5]];portConstraint=eastwest;whiteSpace=wrap;html=1;" parent="JucH0bdHnx9_qoao5w32-20" vertex="1">
          <mxGeometry y="78" width="140" height="26" as="geometry" />
        </mxCell>
        <mxCell id="JucH0bdHnx9_qoao5w32-23" value="- product: Product" style="text;strokeColor=default;fillColor=none;align=left;verticalAlign=top;spacingLeft=4;spacingRight=4;overflow=hidden;rotatable=0;points=[[0,0.5],[1,0.5]];portConstraint=eastwest;whiteSpace=wrap;html=1;" parent="JucH0bdHnx9_qoao5w32-20" vertex="1">
          <mxGeometry y="104" width="140" height="26" as="geometry" />
        </mxCell>
        <mxCell id="onuNT1N9b6zLzL6EmoBz-1" value="viewOrder(order: Order)" style="text;strokeColor=none;fillColor=none;align=left;verticalAlign=top;spacingLeft=4;spacingRight=4;overflow=hidden;rotatable=0;points=[[0,0.5],[1,0.5]];portConstraint=eastwest;whiteSpace=wrap;html=1;" vertex="1" parent="JucH0bdHnx9_qoao5w32-20">
          <mxGeometry y="130" width="140" height="26" as="geometry" />
        </mxCell>
        <mxCell id="JucH0bdHnx9_qoao5w32-24" value="" style="endArrow=open;endSize=12;dashed=1;html=1;rounded=0;exitX=0.5;exitY=0;exitDx=0;exitDy=0;align=center;" parent="1" source="JucH0bdHnx9_qoao5w32-20" edge="1">
          <mxGeometry x="-0.5392" width="160" relative="1" as="geometry">
            <mxPoint x="340" y="260" as="sourcePoint" />
            <mxPoint x="680" y="70" as="targetPoint" />
            <Array as="points">
              <mxPoint x="750" y="70" />
            </Array>
            <mxPoint as="offset" />
          </mxGeometry>
        </mxCell>
        <mxCell id="JucH0bdHnx9_qoao5w32-25" value="Product" style="swimlane;fontStyle=0;childLayout=stackLayout;horizontal=1;startSize=26;fillColor=none;horizontalStack=0;resizeParent=1;resizeParentMax=0;resizeLast=0;collapsible=1;marginBottom=0;whiteSpace=wrap;html=1;" parent="1" vertex="1">
          <mxGeometry x="660" y="588" width="180" height="130" as="geometry" />
        </mxCell>
        <mxCell id="JucH0bdHnx9_qoao5w32-26" value="- name: sting" style="text;strokeColor=none;fillColor=none;align=left;verticalAlign=top;spacingLeft=4;spacingRight=4;overflow=hidden;rotatable=0;points=[[0,0.5],[1,0.5]];portConstraint=eastwest;whiteSpace=wrap;html=1;" parent="JucH0bdHnx9_qoao5w32-25" vertex="1">
          <mxGeometry y="26" width="180" height="26" as="geometry" />
        </mxCell>
        <mxCell id="JucH0bdHnx9_qoao5w32-34" value="- manufacturer: string" style="text;strokeColor=none;fillColor=none;align=left;verticalAlign=top;spacingLeft=4;spacingRight=4;overflow=hidden;rotatable=0;points=[[0,0.5],[1,0.5]];portConstraint=eastwest;whiteSpace=wrap;html=1;" parent="JucH0bdHnx9_qoao5w32-25" vertex="1">
          <mxGeometry y="52" width="180" height="26" as="geometry" />
        </mxCell>
        <mxCell id="JucH0bdHnx9_qoao5w32-27" value="- price: float" style="text;strokeColor=none;fillColor=none;align=left;verticalAlign=top;spacingLeft=4;spacingRight=4;overflow=hidden;rotatable=0;points=[[0,0.5],[1,0.5]];portConstraint=eastwest;whiteSpace=wrap;html=1;" parent="JucH0bdHnx9_qoao5w32-25" vertex="1">
          <mxGeometry y="78" width="180" height="26" as="geometry" />
        </mxCell>
        <mxCell id="onuNT1N9b6zLzL6EmoBz-3" value="viewProduct(product: Product)" style="text;strokeColor=default;fillColor=none;align=left;verticalAlign=top;spacingLeft=4;spacingRight=4;overflow=hidden;rotatable=0;points=[[0,0.5],[1,0.5]];portConstraint=eastwest;whiteSpace=wrap;html=1;" vertex="1" parent="JucH0bdHnx9_qoao5w32-25">
          <mxGeometry y="104" width="180" height="26" as="geometry" />
        </mxCell>
        <mxCell id="JucH0bdHnx9_qoao5w32-29" value="" style="endArrow=diamondThin;endFill=0;endSize=24;html=1;rounded=0;exitX=0.5;exitY=0;exitDx=0;exitDy=0;" parent="1" source="JucH0bdHnx9_qoao5w32-25" edge="1">
          <mxGeometry width="160" relative="1" as="geometry">
            <mxPoint x="350" y="384.79" as="sourcePoint" />
            <mxPoint x="750" y="480" as="targetPoint" />
          </mxGeometry>
        </mxCell>
        <mxCell id="JucH0bdHnx9_qoao5w32-43" value="*" style="edgeLabel;html=1;align=center;verticalAlign=middle;resizable=0;points=[];" parent="JucH0bdHnx9_qoao5w32-29" vertex="1" connectable="0">
          <mxGeometry x="-0.7359" y="2" relative="1" as="geometry">
            <mxPoint x="22" y="5" as="offset" />
          </mxGeometry>
        </mxCell>
        <mxCell id="JucH0bdHnx9_qoao5w32-44" value="*" style="edgeLabel;html=1;align=center;verticalAlign=middle;resizable=0;points=[];" parent="JucH0bdHnx9_qoao5w32-29" vertex="1" connectable="0">
          <mxGeometry x="0.4135" relative="1" as="geometry">
            <mxPoint x="20" y="1" as="offset" />
          </mxGeometry>
        </mxCell>
        <mxCell id="JucH0bdHnx9_qoao5w32-39" value="" style="endArrow=block;endFill=0;endSize=12;html=1;rounded=0;exitX=1.002;exitY=0.143;exitDx=0;exitDy=0;exitPerimeter=0;entryX=0.592;entryY=0.994;entryDx=0;entryDy=0;entryPerimeter=0;" parent="1" source="JucH0bdHnx9_qoao5w32-1" target="_UadZDXfJrqQWSUkQn-_-19" edge="1">
          <mxGeometry width="160" relative="1" as="geometry">
            <mxPoint x="500" y="340" as="sourcePoint" />
            <mxPoint x="600" y="160" as="targetPoint" />
            <Array as="points">
              <mxPoint x="600" y="340" />
            </Array>
          </mxGeometry>
        </mxCell>
        <mxCell id="JucH0bdHnx9_qoao5w32-42" value="" style="endArrow=block;endFill=0;endSize=12;html=1;rounded=0;exitX=0;exitY=0.5;exitDx=0;exitDy=0;" parent="1" source="JucH0bdHnx9_qoao5w32-2" edge="1">
          <mxGeometry width="160" relative="1" as="geometry">
            <mxPoint x="340" y="294.79" as="sourcePoint" />
            <mxPoint x="230" y="364" as="targetPoint" />
          </mxGeometry>
        </mxCell>
        <mxCell id="JucH0bdHnx9_qoao5w32-53" value="" style="endArrow=block;endFill=0;endSize=12;html=1;rounded=0;exitX=0.494;exitY=1.055;exitDx=0;exitDy=0;entryX=0.5;entryY=0;entryDx=0;entryDy=0;exitPerimeter=0;" parent="1" source="JucH0bdHnx9_qoao5w32-4" edge="1">
          <mxGeometry width="160" relative="1" as="geometry">
            <mxPoint x="360" y="360.79" as="sourcePoint" />
            <mxPoint x="420" y="504.78999999999996" as="targetPoint" />
          </mxGeometry>
        </mxCell>
        <mxCell id="JucH0bdHnx9_qoao5w32-55" value="" style="endArrow=open;endFill=1;endSize=12;html=1;rounded=0;exitX=1;exitY=0.25;exitDx=0;exitDy=0;entryX=0;entryY=0.5;entryDx=0;entryDy=0;" parent="1" target="JucH0bdHnx9_qoao5w32-48" edge="1">
          <mxGeometry width="160" relative="1" as="geometry">
            <mxPoint x="490" y="517.79" as="sourcePoint" />
            <mxPoint x="500" y="524.79" as="targetPoint" />
            <Array as="points">
              <mxPoint x="580" y="517.79" />
              <mxPoint x="580" y="363.79" />
            </Array>
          </mxGeometry>
        </mxCell>
        <mxCell id="JucH0bdHnx9_qoao5w32-65" value="1" style="edgeLabel;html=1;align=center;verticalAlign=middle;resizable=0;points=[];" parent="JucH0bdHnx9_qoao5w32-55" vertex="1" connectable="0">
          <mxGeometry x="-0.8572" y="-2" relative="1" as="geometry">
            <mxPoint y="11" as="offset" />
          </mxGeometry>
        </mxCell>
        <mxCell id="JucH0bdHnx9_qoao5w32-66" value="*" style="edgeLabel;html=1;align=center;verticalAlign=middle;resizable=0;points=[];" parent="JucH0bdHnx9_qoao5w32-55" vertex="1" connectable="0">
          <mxGeometry x="0.8404" y="-1" relative="1" as="geometry">
            <mxPoint y="10" as="offset" />
          </mxGeometry>
        </mxCell>
        <mxCell id="JucH0bdHnx9_qoao5w32-62" value="" style="endArrow=open;endFill=1;endSize=12;html=1;rounded=0;exitX=0.5;exitY=0;exitDx=0;exitDy=0;entryX=0;entryY=0.5;entryDx=0;entryDy=0;" parent="1" source="_UadZDXfJrqQWSUkQn-_-11" target="JucH0bdHnx9_qoao5w32-14" edge="1">
          <mxGeometry width="160" relative="1" as="geometry">
            <mxPoint x="160" y="324.78999999999996" as="sourcePoint" />
            <mxPoint x="540" y="250" as="targetPoint" />
            <Array as="points">
              <mxPoint x="160" y="89" />
            </Array>
          </mxGeometry>
        </mxCell>
        <mxCell id="JucH0bdHnx9_qoao5w32-63" value="1" style="edgeLabel;html=1;align=center;verticalAlign=middle;resizable=0;points=[];" parent="JucH0bdHnx9_qoao5w32-62" vertex="1" connectable="0">
          <mxGeometry x="-0.8632" y="-3" relative="1" as="geometry">
            <mxPoint y="23" as="offset" />
          </mxGeometry>
        </mxCell>
        <mxCell id="JucH0bdHnx9_qoao5w32-64" value="*" style="edgeLabel;html=1;align=center;verticalAlign=middle;resizable=0;points=[];" parent="JucH0bdHnx9_qoao5w32-62" vertex="1" connectable="0">
          <mxGeometry x="0.8859" y="1" relative="1" as="geometry">
            <mxPoint y="12" as="offset" />
          </mxGeometry>
        </mxCell>
        <mxCell id="_UadZDXfJrqQWSUkQn-_-11" value="Seller" style="swimlane;fontStyle=0;childLayout=stackLayout;horizontal=1;startSize=26;fillColor=none;horizontalStack=0;resizeParent=1;resizeParentMax=0;resizeLast=0;collapsible=1;marginBottom=0;whiteSpace=wrap;html=1;" parent="1" vertex="1">
          <mxGeometry x="90" y="330" width="140" height="52" as="geometry" />
        </mxCell>
        <mxCell id="_UadZDXfJrqQWSUkQn-_-12" value="+ viewOrder()" style="text;strokeColor=none;fillColor=none;align=left;verticalAlign=top;spacingLeft=4;spacingRight=4;overflow=hidden;rotatable=0;points=[[0,0.5],[1,0.5]];portConstraint=eastwest;whiteSpace=wrap;html=1;" parent="_UadZDXfJrqQWSUkQn-_-11" vertex="1">
          <mxGeometry y="26" width="140" height="26" as="geometry" />
        </mxCell>
        <mxCell id="_UadZDXfJrqQWSUkQn-_-15" value="Courier" style="swimlane;fontStyle=0;childLayout=stackLayout;horizontal=1;startSize=26;fillColor=none;horizontalStack=0;resizeParent=1;resizeParentMax=0;resizeLast=0;collapsible=1;marginBottom=0;whiteSpace=wrap;html=1;" parent="1" vertex="1">
          <mxGeometry x="350" y="510" width="140" height="78" as="geometry" />
        </mxCell>
        <mxCell id="_UadZDXfJrqQWSUkQn-_-16" value="+ viewOrder()" style="text;strokeColor=none;fillColor=none;align=left;verticalAlign=top;spacingLeft=4;spacingRight=4;overflow=hidden;rotatable=0;points=[[0,0.5],[1,0.5]];portConstraint=eastwest;whiteSpace=wrap;html=1;" parent="_UadZDXfJrqQWSUkQn-_-15" vertex="1">
          <mxGeometry y="26" width="140" height="26" as="geometry" />
        </mxCell>
        <mxCell id="_UadZDXfJrqQWSUkQn-_-20" value="+ viewConsumer()" style="text;strokeColor=none;fillColor=none;align=left;verticalAlign=top;spacingLeft=4;spacingRight=4;overflow=hidden;rotatable=0;points=[[0,0.5],[1,0.5]];portConstraint=eastwest;whiteSpace=wrap;html=1;" parent="_UadZDXfJrqQWSUkQn-_-15" vertex="1">
          <mxGeometry y="52" width="140" height="26" as="geometry" />
        </mxCell>
      </root>
    </mxGraphModel>
  </diagram>
</mxfile>
